<svg width="24" height="24" viewBox="0 0 24 24" fill="none" xmlns="http://www.w3.org/2000/svg">
<path d="M12.2598 9.001C12.124 9.001 12.0274 8.999 11.9854 8.99807C11.8293 8.99427 11.6763 8.95401 11.5385 8.88051C11.4008 8.80701 11.2821 8.7023 11.1921 8.57477C11.102 8.44723 11.0431 8.3004 11.0199 8.146C10.9967 7.9916 11.01 7.83393 11.0586 7.68557C11.4063 6.63088 11.7188 5.55471 11.9883 4.4844C12.582 2.28906 13.8809 1 15.4717 1C16.4406 1.03617 17.3558 1.45461 18.017 2.16377C18.6782 2.87293 19.0317 3.8151 19 4.78418C19 7.12012 16.6572 8.14355 15.8867 8.47949C14.7163 8.85879 13.4897 9.03517 12.2598 9.001ZM15.4717 3C14.4893 3 13.9824 4.76855 13.9277 4.96973C13.7607 5.63379 13.5781 6.29883 13.3819 6.95898C13.9571 6.93831 14.5264 6.83504 15.0723 6.65234C16.0332 6.2334 17 5.68945 17 4.78418C17.0307 4.34565 16.8876 3.91266 16.6016 3.57879C16.3156 3.24493 15.9097 3.03702 15.4717 3Z" fill="#E8B21D"/>
<path d="M11.6787 9.00098C10.482 9.02339 9.29009 8.84514 8.15234 8.47363C5.4375 7.41598 5.01172 5.70898 5 4.78514C5.00194 4.26686 5.10806 3.75426 5.31206 3.27781C5.51606 2.80136 5.81378 2.37079 6.1875 2.0117C6.81214 1.3807 7.65819 1.01812 8.5459 1.00098C10.4131 1.05566 11.2949 2.95998 11.9385 4.35059L11.0322 4.77246L11.9395 4.35254C12.359 5.46547 12.7006 6.60624 12.9619 7.76658C12.996 7.91059 12.9976 8.06037 12.9667 8.20509C12.9358 8.34981 12.8731 8.48587 12.7833 8.60342C12.6934 8.72097 12.5785 8.81709 12.4469 8.88483C12.3153 8.95256 12.1704 8.99023 12.0225 8.9951C11.9756 8.99705 11.8545 9.00098 11.6787 9.00098ZM8.46777 2.99998C8.13084 3.03133 7.81775 3.18736 7.58984 3.43749C7.40933 3.60821 7.2643 3.8129 7.16308 4.03981C7.06186 4.26671 7.00644 4.51137 7 4.75975C7.01172 5.68846 8.0293 6.27928 8.87988 6.61131C9.46552 6.80872 10.0753 6.92567 10.6924 6.95896C10.5426 6.35817 10.3531 5.768 10.125 5.19236L10.124 5.19041C9.67578 4.22264 9.11816 3.01853 8.4873 3.00098L8.46777 2.99998Z" fill="#E8B21D"/>
<path d="M19.5 7H4.5C3.83696 7 3.20107 7.26339 2.73223 7.73223C2.26339 8.20107 2 8.83696 2 9.5V20.5C2 21.163 2.26339 21.7989 2.73223 22.2678C3.20107 22.7366 3.83696 23 4.5 23H19.5C19.8283 23 20.1534 22.9354 20.4567 22.8097C20.76 22.6841 21.0357 22.4999 21.2678 22.2678C21.4999 22.0356 21.6841 21.76 21.8097 21.4567C21.9354 21.1534 22 20.8283 22 20.5V9.5C22 9.17169 21.9354 8.84659 21.8097 8.54327C21.6841 8.23995 21.4999 7.96435 21.2678 7.7322C21.0357 7.50005 20.76 7.3159 20.4567 7.19027C20.1534 7.06464 19.8283 6.99999 19.5 7ZM15.8455 15.73L15.2961 16.2794L12.575 19.0006C12.4995 19.0761 12.4099 19.136 12.3113 19.1769C12.2126 19.2177 12.1069 19.2387 12.0002 19.2387C11.8934 19.2387 11.7877 19.2177 11.6891 19.1769C11.5904 19.136 11.5008 19.0761 11.4253 19.0006L8.70386 16.2794L8.15454 15.73C7.91053 15.4858 7.72377 15.1904 7.60771 14.8653C7.49166 14.5401 7.44921 14.1933 7.48343 13.8498C7.51764 13.5062 7.62767 13.1746 7.80557 12.8787C7.98348 12.5828 8.22483 12.3301 8.51221 12.1388C8.9766 11.8433 9.52883 11.7173 10.0754 11.7822C10.622 11.8471 11.1294 12.0989 11.5117 12.4949L12 12.9832L12.4883 12.4949C12.8706 12.0988 13.378 11.8471 13.9246 11.7822C14.4712 11.7173 15.0234 11.8434 15.4878 12.1389C15.7752 12.3302 16.0165 12.5829 16.1944 12.8788C16.3723 13.1746 16.4824 13.5063 16.5166 13.8498C16.5508 14.1933 16.5084 14.5402 16.3923 14.8653C16.2762 15.1905 16.0895 15.4858 15.8455 15.73Z" fill="#E8B21D"/>
</svg>
