<svg width="24" height="24" viewBox="0 0 24 24" fill="none" xmlns="http://www.w3.org/2000/svg">
<g clip-path="url(#clip0_798_25600)">
<path d="M21.1615 0.525391H7.74787C6.21578 0.525391 4.95154 1.76824 4.91943 3.30033H16.2546C18.9974 3.30033 21.2258 5.53951 21.2258 8.28228V18.557C22.758 18.5248 24.0008 17.2606 24.0008 15.7178V3.36461C24.0008 1.80035 22.7258 0.525391 21.1615 0.525391Z" fill="#E8B21D"/>
<path d="M16.2529 5.44336H2.83922C1.27496 5.44336 0 6.71832 0 8.28252V10.2967H19.0813V8.28252C19.0813 6.71832 17.8064 5.44336 16.2529 5.44336Z" fill="#E8B21D"/>
<path d="M0 20.6356C0 22.1998 1.27496 23.4748 2.83922 23.4748H16.2529C17.8064 23.4748 19.0813 22.1998 19.0813 20.6356V12.4395H0V20.6356ZM11.0459 17.0464H14.2601C14.8494 17.0464 15.3315 17.5179 15.3315 18.1178C15.3315 18.7071 14.8494 19.1892 14.2601 19.1892H11.0459C10.4566 19.1892 9.97448 18.7071 9.97448 18.1178C9.97448 17.5179 10.4566 17.0464 11.0459 17.0464Z" fill="#E8B21D"/>
</g>
<defs>
<clipPath id="clip0_798_25600">
<rect width="24" height="24" fill="white"/>
</clipPath>
</defs>
</svg>
