<svg width="16" height="17" viewBox="0 0 16 17" fill="none" xmlns="http://www.w3.org/2000/svg">
<path d="M8.40317 3.29284L8.3378 3.25491C7.59692 2.82343 6.94519 2.44315 6.38656 2.2516C6.0786 2.13828 5.74939 2.08758 5.41985 2.10271C5.07296 2.12806 4.7414 2.25003 4.46602 2.45359C3.89254 2.86515 3.64492 3.47112 3.50922 4.14157C3.37749 4.79117 3.32698 5.63706 3.26458 6.66692L3.2616 6.72002C3.22397 7.33642 3.2002 7.94619 3.2002 8.49905C3.2002 9.05191 3.22397 9.66262 3.2616 10.279L3.26458 10.3312C3.32698 11.361 3.37749 12.2069 3.50922 12.8556C3.64492 13.527 3.89254 14.132 4.46602 14.5445C4.7493 14.7484 5.06724 14.8698 5.41985 14.8954C5.7586 14.9191 6.08347 14.8508 6.38656 14.7465C6.94519 14.5549 7.59692 14.1747 8.3378 13.7441L8.40317 13.7062C8.82511 13.4596 9.23913 13.2064 9.60858 12.957C10.061 12.6489 10.5021 12.3256 10.9309 11.9879L10.9804 11.949C11.7371 11.3582 12.3789 10.8565 12.8227 10.3634C13.306 9.82289 13.6002 9.24252 13.6002 8.49905C13.6002 7.75558 13.306 7.17426 12.8217 6.63468C12.3789 6.14156 11.7371 5.63895 10.9814 5.04911L10.9319 5.01022C10.4822 4.65935 10.0305 4.32365 9.60858 4.04105C9.2151 3.77926 8.8131 3.52941 8.40317 3.29189" fill="#E8B21D"/>
</svg>
