<svg width="16" height="16" viewBox="0 0 16 16" fill="none" xmlns="http://www.w3.org/2000/svg">
<g clip-path="url(#clip0_954_18135)">
<path d="M8.62432 12.4448L15.7444 5.32455C15.9092 5.15987 16 4.94003 16 4.70563C16 4.47122 15.9092 4.25139 15.7444 4.08671L15.2202 3.56235C14.8786 3.22115 14.3234 3.22115 13.9823 3.56235L8.00332 9.54136L2.01768 3.55572C1.85286 3.39104 1.63316 3.30011 1.39888 3.30011C1.16435 3.30011 0.944643 3.39104 0.779701 3.55572L0.255608 4.08007C0.0907964 4.24488 9.02773e-07 4.46459 8.92527e-07 4.69899C8.82281e-07 4.9334 0.0907964 5.15323 0.255608 5.31791L7.38218 12.4448C7.54752 12.6098 7.76826 12.7005 8.00293 12.7C8.2385 12.7005 8.45912 12.6098 8.62432 12.4448Z" fill="#7C612F"/>
</g>
<defs>
<clipPath id="clip0_954_18135">
<rect width="16" height="16" fill="white"/>
</clipPath>
</defs>
</svg>
