<svg width="17" height="17" viewBox="0 0 17 17" fill="none" xmlns="http://www.w3.org/2000/svg">
<mask id="path-1-inside-1_954_18026" fill="white">
<path d="M0 1.48869C0 0.666508 0.66777 -0.00676644 1.4868 0.0651406C3.20969 0.216402 4.90239 0.629969 6.50562 1.29405C8.56816 2.14838 10.4422 3.40059 12.0208 4.97919C13.5994 6.55778 14.8516 8.43185 15.706 10.4944C16.37 12.0976 16.7836 13.7903 16.9349 15.5132C17.0068 16.3322 16.3335 17 15.5113 17C14.6891 17 14.0308 16.3316 13.9437 15.5141C13.8018 14.1826 13.4696 12.8756 12.9552 11.6338C12.2505 9.93247 11.2176 8.38663 9.91549 7.08451C8.61337 5.78239 7.06753 4.74949 5.36623 4.04479C4.12437 3.53039 2.81743 3.19822 1.48591 3.05633C0.668358 2.9692 0 2.31087 0 1.48869Z"/>
</mask>
<path d="M0 1.48869C0 0.666508 0.66777 -0.00676644 1.4868 0.0651406C3.20969 0.216402 4.90239 0.629969 6.50562 1.29405C8.56816 2.14838 10.4422 3.40059 12.0208 4.97919C13.5994 6.55778 14.8516 8.43185 15.706 10.4944C16.37 12.0976 16.7836 13.7903 16.9349 15.5132C17.0068 16.3322 16.3335 17 15.5113 17C14.6891 17 14.0308 16.3316 13.9437 15.5141C13.8018 14.1826 13.4696 12.8756 12.9552 11.6338C12.2505 9.93247 11.2176 8.38663 9.91549 7.08451C8.61337 5.78239 7.06753 4.74949 5.36623 4.04479C4.12437 3.53039 2.81743 3.19822 1.48591 3.05633C0.668358 2.9692 0 2.31087 0 1.48869Z" stroke="#FED970" stroke-width="4" mask="url(#path-1-inside-1_954_18026)"/>
</svg>
