<svg width="67" height="69" viewBox="0 0 67 69" fill="none" xmlns="http://www.w3.org/2000/svg">
<path d="M1.35954 61.4419C1.35954 64.737 4.03074 67.4082 7.32583 67.4082H55.7191C59.0142 67.4082 61.6854 64.737 61.6854 61.4419V13.0487C61.6854 9.75358 59.0142 7.08238 55.7191 7.08238H7.32583C4.03074 7.08238 1.35954 9.75358 1.35954 13.0487V61.4419Z" fill="#1F1704" stroke="#3B2B0D" stroke-width="1.32584"/>
<path d="M5.33708 55.6966C5.33708 58.9917 8.00828 61.6629 11.3034 61.6629H59.6966C62.9917 61.6629 65.6629 58.9917 65.6629 55.6966V7.30337C65.6629 4.00828 62.9917 1.33708 59.6966 1.33708H11.3034C8.00828 1.33708 5.33708 4.00828 5.33708 7.30337V55.6966Z" fill="#1F1704" stroke="#3B2B0D" stroke-width="1.32584"/>
<path fill-rule="evenodd" clip-rule="evenodd" d="M3.19631 7.18537C4.20711 5.66226 5.53236 3.79723 6.73567 2.53662L7.69472 3.45208C6.57781 4.62219 5.30661 6.40323 4.30102 7.9185C3.80168 8.67094 3.37394 9.34847 3.07112 9.83777C2.91977 10.0823 2.79979 10.2796 2.71786 10.4154C2.6769 10.4832 2.64546 10.5357 2.62437 10.5711L2.60062 10.6109L2.59308 10.6237C2.59308 10.6237 2.59304 10.6237 2.02231 10.2865C1.45158 9.94924 1.45162 9.94918 1.45166 9.94911L1.46062 9.93399L1.4859 9.89154C1.50803 9.85447 1.54057 9.80014 1.58269 9.73034C1.66692 9.59076 1.7895 9.38924 1.94372 9.14005C2.25203 8.64187 2.68746 7.95213 3.19631 7.18537Z" fill="#3B2B0D"/>
<path fill-rule="evenodd" clip-rule="evenodd" d="M58.2939 66.1128C60.7248 64.2104 62.6604 61.2173 64.0917 58.6851L65.2459 59.3374C63.8045 61.8876 61.7626 65.0818 59.1111 67.1569L58.2939 66.1128Z" fill="#3B2B0D"/>
<path fill-rule="evenodd" clip-rule="evenodd" d="M5.20854 61.6471C5.43021 61.3184 5.53916 60.9235 5.46192 60.5347C5.40955 60.271 5.33857 59.9736 5.25603 59.6301C5.08505 58.9186 4.881 58.0653 4.78767 57.0853L6.10754 56.9596C6.19099 57.8358 6.37365 58.6066 6.54517 59.3203C6.55124 59.3455 6.55732 59.3708 6.56341 59.3961C6.6059 59.5727 6.64858 59.75 6.6883 59.9266L7.0781 59.5368L8.01561 60.4743L7.73363 60.7563L10.0165 60.8906L9.93864 62.2142L7.5653 62.0746C6.94175 62.0379 6.34513 62.333 5.99588 62.8509L3.5665 66.453L2.46729 65.7117L5.20854 61.6471Z" fill="#3B2B0D"/>
<path d="M19.8607 43.75H21.5607C22.1607 43.75 22.674 43.9567 23.1007 44.37C23.5207 44.7767 23.7307 45.2767 23.7307 45.87C23.7307 46.47 23.5207 46.9767 23.1007 47.39C22.694 47.7967 22.1807 48 21.5607 48H18.9307V41H23.1307V41.88H19.8607V43.75ZM19.8607 47.13H21.5607C21.9073 47.13 22.2007 47.01 22.4407 46.77C22.6873 46.53 22.8107 46.23 22.8107 45.87C22.8107 45.5167 22.6873 45.22 22.4407 44.98C22.2007 44.74 21.9073 44.62 21.5607 44.62H19.8607V47.13ZM28.9103 47.37C28.4036 47.8767 27.7803 48.13 27.0403 48.13C26.3003 48.13 25.6769 47.8767 25.1703 47.37C24.6636 46.8633 24.4103 46.24 24.4103 45.5C24.4103 44.76 24.6636 44.1367 25.1703 43.63C25.6769 43.1233 26.3003 42.87 27.0403 42.87C27.7803 42.87 28.4036 43.1233 28.9103 43.63C29.4236 44.1433 29.6803 44.7667 29.6803 45.5C29.6803 46.2333 29.4236 46.8567 28.9103 47.37ZM27.0403 47.28C27.5403 47.28 27.9603 47.11 28.3003 46.77C28.6403 46.43 28.8103 46.0067 28.8103 45.5C28.8103 44.9933 28.6403 44.57 28.3003 44.23C27.9603 43.89 27.5403 43.72 27.0403 43.72C26.5469 43.72 26.1303 43.89 25.7903 44.23C25.4503 44.57 25.2803 44.9933 25.2803 45.5C25.2803 46.0067 25.4503 46.43 25.7903 46.77C26.1303 47.11 26.5469 47.28 27.0403 47.28ZM34.1659 45.08V43H35.0359V48H34.1659V45.91H31.5759V48H30.7059V43H31.5759V45.08H34.1659ZM38.4102 46.92L39.8502 43H40.7802L38.7402 48.31C38.5269 48.8767 38.2269 49.3067 37.8402 49.6C37.4535 49.9 37.0135 50.0333 36.5202 50V49.19C37.1269 49.2367 37.5769 48.9033 37.8702 48.19L37.9502 48.01L35.7802 43H36.7002L38.4102 46.92ZM43.6614 48.13C42.908 48.13 42.2814 47.88 41.7814 47.38C41.2814 46.8733 41.0314 46.2467 41.0314 45.5C41.0314 44.7533 41.2814 44.13 41.7814 43.63C42.2814 43.1233 42.908 42.87 43.6614 42.87C44.1547 42.87 44.598 42.99 44.9914 43.23C45.3847 43.4633 45.678 43.78 45.8714 44.18L45.1414 44.6C45.0147 44.3333 44.818 44.12 44.5514 43.96C44.2914 43.8 43.9947 43.72 43.6614 43.72C43.1614 43.72 42.7414 43.89 42.4014 44.23C42.068 44.5767 41.9014 45 41.9014 45.5C41.9014 45.9933 42.068 46.4133 42.4014 46.76C42.7414 47.1 43.1614 47.27 43.6614 47.27C43.9947 47.27 44.2947 47.1933 44.5614 47.04C44.828 46.88 45.0314 46.6667 45.1714 46.4L45.9114 46.83C45.6914 47.23 45.3814 47.5467 44.9814 47.78C44.5814 48.0133 44.1414 48.13 43.6614 48.13ZM47.6501 44.8H48.8901C49.3901 44.8 49.8035 44.95 50.1301 45.25C50.4635 45.5433 50.6301 45.9267 50.6301 46.4C50.6301 46.8733 50.4635 47.26 50.1301 47.56C49.7968 47.8533 49.3835 48 48.8901 48H46.7801V43H47.6501V44.8ZM51.2801 48V43H52.1501V48H51.2801ZM47.6501 47.19H48.8901C49.1435 47.19 49.3535 47.1167 49.5201 46.97C49.6868 46.8233 49.7701 46.6333 49.7701 46.4C49.7701 46.1667 49.6835 45.9767 49.5101 45.83C49.3435 45.6767 49.1368 45.6 48.8901 45.6H47.6501V47.19Z" fill="#E0CAA3"/>
<path d="M35.2163 21.5008C35.1032 21.5008 35.0226 21.4991 34.9876 21.4984C34.8576 21.4952 34.7301 21.4617 34.6153 21.4004C34.5005 21.3392 34.4016 21.2519 34.3266 21.1456C34.2515 21.0393 34.2024 20.917 34.1831 20.7883C34.1638 20.6596 34.1748 20.5283 34.2153 20.4046C34.5051 19.5257 34.7655 18.6289 34.9901 17.737C35.4849 15.9075 36.5672 14.8333 37.8929 14.8333C38.7004 14.8635 39.463 15.2122 40.014 15.8031C40.565 16.3941 40.8595 17.1792 40.8332 17.9868C40.8332 19.9334 38.8809 20.7863 38.2388 21.0662C37.2634 21.3823 36.2412 21.5293 35.2163 21.5008ZM37.8929 16.5C37.0742 16.5 36.6519 17.9738 36.6063 18.1414C36.4671 18.6948 36.315 19.249 36.1514 19.7991C36.6308 19.7819 37.1052 19.6959 37.5601 19.5436C38.3609 19.1945 39.1665 18.7412 39.1665 17.9868C39.1921 17.6214 39.0728 17.2605 38.8345 16.9823C38.5962 16.7041 38.258 16.5308 37.8929 16.5Z" fill="#7C612F"/>
<path d="M34.7321 21.5008C33.7349 21.5195 32.7416 21.371 31.7935 21.0614C29.5311 20.18 29.1763 18.7575 29.1665 17.9876C29.1681 17.5557 29.2566 17.1286 29.4266 16.7315C29.5966 16.3345 29.8446 15.9757 30.1561 15.6764C30.6766 15.1506 31.3817 14.8485 32.1214 14.8342C33.6774 14.8797 34.4123 16.4667 34.9486 17.6255L34.1934 17.9771L34.9494 17.6271C35.299 18.5546 35.5837 19.5052 35.8014 20.4722C35.8298 20.5922 35.8312 20.717 35.8054 20.8376C35.7797 20.9582 35.7275 21.0716 35.6526 21.1695C35.5776 21.2675 35.4819 21.3476 35.3723 21.404C35.2626 21.4605 35.1418 21.4919 35.0186 21.4959C34.9795 21.4976 34.8786 21.5008 34.7321 21.5008ZM32.0563 16.5C31.7755 16.5261 31.5146 16.6562 31.3247 16.8646C31.1743 17.0069 31.0534 17.1774 30.9691 17.3665C30.8847 17.5556 30.8385 17.7595 30.8332 17.9665C30.8429 18.7404 31.6909 19.2328 32.3997 19.5094C32.8878 19.674 33.3959 19.7714 33.9102 19.7992C33.7853 19.2985 33.6274 18.8067 33.4373 18.327L33.4365 18.3254C33.063 17.5189 32.5983 16.5155 32.0726 16.5008L32.0563 16.5Z" fill="#7C612F"/>
<path d="M41.2498 19.8333H28.7498C28.1973 19.8333 27.6674 20.0528 27.2767 20.4435C26.886 20.8342 26.6665 21.3641 26.6665 21.9166V31.0833C26.6665 31.6358 26.886 32.1658 27.2767 32.5565C27.6674 32.9472 28.1973 33.1666 28.7498 33.1666H41.2498C41.5234 33.1667 41.7943 33.1128 42.0471 33.0081C42.2999 32.9034 42.5295 32.7499 42.723 32.5565C42.9165 32.363 43.0699 32.1334 43.1746 31.8806C43.2793 31.6278 43.3332 31.3569 43.3332 31.0833V21.9166C43.3332 21.6431 43.2793 21.3721 43.1746 21.1194C43.0699 20.8666 42.9165 20.6369 42.723 20.4435C42.5295 20.25 42.2999 20.0966 42.0471 19.9919C41.7943 19.8872 41.5234 19.8333 41.2498 19.8333ZM38.2044 27.1083L37.7466 27.5661L35.479 29.8338C35.4161 29.8967 35.3414 29.9466 35.2592 29.9807C35.177 30.0147 35.0889 30.0323 35 30.0323C34.911 30.0323 34.8229 30.0147 34.7407 29.9807C34.6585 29.9466 34.5839 29.8967 34.521 29.8338L32.2531 27.5661L31.7953 27.1083C31.5919 26.9048 31.4363 26.6587 31.3396 26.3877C31.2429 26.1168 31.2075 25.8277 31.236 25.5414C31.2645 25.2552 31.3562 24.9788 31.5045 24.7322C31.6527 24.4857 31.8539 24.2751 32.0933 24.1157C32.4803 23.8694 32.9405 23.7644 33.396 23.8185C33.8515 23.8726 34.2744 24.0824 34.5929 24.4124L34.9998 24.8193L35.4067 24.4124C35.7253 24.0823 36.1481 23.8725 36.6037 23.8185C37.0592 23.7644 37.5194 23.8694 37.9063 24.1157C38.1458 24.2752 38.3469 24.4857 38.4952 24.7323C38.6435 24.9788 38.7351 25.2552 38.7637 25.5415C38.7922 25.8278 38.7568 26.1168 38.6601 26.3877C38.5634 26.6587 38.4077 26.9048 38.2044 27.1083Z" fill="#7C612F"/>
</svg>
