<svg width="20" height="20" viewBox="0 0 20 20" fill="none" xmlns="http://www.w3.org/2000/svg">
<path d="M10.2163 7.50081C10.1032 7.50081 10.0226 7.49915 9.98764 7.49837C9.85758 7.4952 9.73005 7.46165 9.61527 7.4004C9.50048 7.33915 9.40162 7.2519 9.32657 7.14562C9.25153 7.03934 9.20238 6.91698 9.18307 6.78831C9.16376 6.65965 9.17481 6.52825 9.21534 6.40462C9.50506 5.52571 9.76548 4.6289 9.99009 3.73698C10.4849 1.90753 11.5672 0.833313 12.8929 0.833313C13.7004 0.863457 14.463 1.21215 15.014 1.80312C15.565 2.39409 15.8595 3.17923 15.8332 3.9868C15.8332 5.93341 13.8809 6.78627 13.2388 7.06622C12.2634 7.3823 11.2412 7.52929 10.2163 7.50081ZM12.8929 2.49998C12.0742 2.49998 11.6519 3.97377 11.6063 4.14142C11.4671 4.6948 11.315 5.249 11.1514 5.79913C11.6308 5.78191 12.1052 5.69585 12.5601 5.5436C13.3609 5.19448 14.1665 4.74119 14.1665 3.9868C14.1921 3.62135 14.0728 3.26053 13.8345 2.98231C13.5962 2.70409 13.258 2.53083 12.8929 2.49998Z" fill="#7C612F"/>
<path d="M9.7321 7.50083C8.73488 7.51952 7.74158 7.37097 6.79345 7.06138C4.53109 6.18 4.17627 4.7575 4.1665 3.98763C4.16812 3.55573 4.25656 3.12857 4.42656 2.73153C4.59656 2.33449 4.84465 1.97568 5.15609 1.67643C5.67662 1.15061 6.38166 0.848453 7.12142 0.834167C8.67741 0.879734 9.41225 2.46667 9.94857 3.62551L9.19336 3.97707L9.94938 3.62713C10.299 4.55458 10.5837 5.50522 10.8014 6.47217C10.8298 6.59218 10.8312 6.71699 10.8054 6.8376C10.7797 6.9582 10.7275 7.07158 10.6526 7.16954C10.5776 7.2675 10.4819 7.34759 10.3723 7.40404C10.2626 7.46049 10.1418 7.49187 10.0186 7.49593C9.9795 7.49756 9.87858 7.50083 9.7321 7.50083ZM7.05631 2.5C6.77553 2.52613 6.51463 2.65615 6.3247 2.86459C6.17428 3.00686 6.05342 3.17744 5.96907 3.36653C5.88472 3.55561 5.83854 3.7595 5.83317 3.96648C5.84294 4.7404 6.69092 5.23275 7.39974 5.50944C7.88777 5.67395 8.39589 5.77141 8.91015 5.79915C8.78533 5.2985 8.62738 4.80669 8.43734 4.32698L8.4365 4.32536C8.06299 3.51888 7.5983 2.51546 7.07259 2.50083L7.05631 2.5Z" fill="#7C612F"/>
<path d="M16.2498 5.83331H3.74984C3.1973 5.83331 2.6674 6.05281 2.2767 6.44351C1.886 6.83421 1.6665 7.36411 1.6665 7.91665V17.0833C1.6665 17.6358 1.886 18.1658 2.2767 18.5565C2.6674 18.9472 3.1973 19.1666 3.74984 19.1666H16.2498C16.5234 19.1667 16.7943 19.1128 17.0471 19.0081C17.2999 18.9034 17.5295 18.7499 17.723 18.5565C17.9165 18.363 18.0699 18.1334 18.1746 17.8806C18.2793 17.6278 18.3332 17.3569 18.3332 17.0833V7.91665C18.3332 7.64306 18.2793 7.37214 18.1746 7.11937C18.0699 6.86661 17.9165 6.63694 17.723 6.44348C17.5295 6.25002 17.2999 6.09657 17.0471 5.99187C16.7943 5.88718 16.5234 5.8333 16.2498 5.83331ZM13.2044 13.1083L12.7466 13.5661L10.479 15.8338C10.4161 15.8967 10.3414 15.9466 10.2592 15.9807C10.177 16.0147 10.0889 16.0323 9.99998 16.0323C9.91101 16.0323 9.82292 16.0147 9.74073 15.9807C9.65854 15.9466 9.58386 15.8967 9.52095 15.8338L7.25305 13.5661L6.79529 13.1083C6.59195 12.9048 6.43631 12.6587 6.3396 12.3877C6.24289 12.1168 6.20751 11.8277 6.23603 11.5414C6.26454 11.2552 6.35623 10.9788 6.50448 10.7322C6.65274 10.4857 6.85386 10.2751 7.09335 10.1157C7.48034 9.8694 7.94053 9.76443 8.39603 9.8185C8.85153 9.87258 9.27435 10.0824 9.59294 10.4124L9.99984 10.8193L10.4067 10.4124C10.7253 10.0823 11.1481 9.87254 11.6037 9.81848C12.0592 9.76443 12.5194 9.86944 12.9063 10.1157C13.1458 10.2752 13.3469 10.4857 13.4952 10.7323C13.6435 10.9788 13.7351 11.2552 13.7637 11.5415C13.7922 11.8278 13.7568 12.1168 13.6601 12.3877C13.5634 12.6587 13.4077 12.9048 13.2044 13.1083Z" fill="#7C612F"/>
</svg>
