<svg width="16" height="16" viewBox="0 0 16 16" fill="none" xmlns="http://www.w3.org/2000/svg">
<g clip-path="url(#clip0_934_16688)">
<path d="M8.17255 0.501973C7.95155 0.496473 7.73055 0.501973 7.51055 0.516473C6.08355 0.609973 4.73655 1.07097 3.54955 1.96397V1.49797C3.54855 1.22347 3.32605 1.00097 3.05155 0.999973C2.77555 0.998973 2.55055 1.22197 2.54955 1.49797V3.04797C2.54955 3.49347 3.08655 3.71597 3.40205 3.40247C5.71155 1.09347 9.36705 0.853972 11.9575 2.84197C14.548 4.82997 15.262 8.42197 13.63 11.25C11.997 14.078 8.53105 15.253 5.51405 14.003C2.49705 12.753 0.878547 9.47247 1.72405 6.31847C1.79605 6.05147 1.63705 5.77697 1.36955 5.70597C1.10355 5.63347 0.829047 5.79047 0.756047 6.05647C-0.216953 9.68847 1.65655 13.49 5.13005 14.9295C8.60355 16.3685 12.6145 15.003 14.4945 11.748C16.3745 8.49297 15.5505 4.33647 12.5675 2.04797C11.2625 1.04647 9.71855 0.536473 8.17255 0.501973ZM8.00105 2.88297C5.18055 2.88297 2.88105 5.17897 2.88105 7.99897C2.88105 10.819 5.18105 13.118 8.00105 13.118C10.821 13.118 13.116 10.8185 13.116 7.99897C13.116 5.17947 10.821 2.88297 8.00105 2.88297ZM8.00105 4.85747C8.27705 4.85847 8.50005 5.08347 8.49905 5.35947V5.43647C8.99905 5.50447 9.42755 5.81447 9.65505 6.24597C9.78305 6.49047 9.68855 6.79247 9.44355 6.92097C9.20005 7.04897 8.89755 6.95497 8.76855 6.71097C8.67905 6.54047 8.50605 6.42297 8.29205 6.42297H7.82705C7.52005 6.42297 7.28805 6.65497 7.28805 6.96197C7.28805 7.26897 7.52005 7.50097 7.82705 7.50097H8.00105H8.02555H8.17405C9.01805 7.50097 9.70905 8.19647 9.70905 9.03997C9.70905 9.77247 9.18855 10.3905 8.49905 10.542V10.6415C8.49805 10.916 8.27555 11.1385 8.00105 11.1395C7.72455 11.141 7.49905 10.918 7.49805 10.6415V10.5635C6.99905 10.4945 6.57055 10.1865 6.34355 9.75597C6.21455 9.51197 6.30905 9.20847 6.55355 9.07997C6.79855 8.95097 7.10105 9.04597 7.22955 9.29097C7.31905 9.46147 7.49555 9.57797 7.70905 9.57797H8.17405C8.48155 9.57797 8.70905 9.34697 8.70905 9.03997C8.70905 8.73297 8.48155 8.50097 8.17405 8.50097H8.00105H7.82705C6.98305 8.50097 6.28805 7.80547 6.28805 6.96197C6.28805 6.23147 6.81005 5.61397 7.49805 5.46097V5.35947C7.49705 5.08147 7.72255 4.85597 8.00105 4.85747Z" fill="#939393"/>
</g>
<defs>
<clipPath id="clip0_934_16688">
<rect width="16" height="16" fill="white"/>
</clipPath>
</defs>
</svg>
