<svg width="16" height="16" viewBox="0 0 16 16" fill="none" xmlns="http://www.w3.org/2000/svg">
<path d="M8.1664 5.16672H7.99974C7.92124 5.16352 7.84457 5.14212 7.77577 5.1042C7.70697 5.06628 7.64793 5.01288 7.60331 4.94822C7.5587 4.88356 7.52973 4.80941 7.51869 4.73163C7.50766 4.65385 7.51487 4.57457 7.53974 4.50005C7.77307 3.91338 7.9864 3.31338 8.15974 2.72672C8.3064 2.27338 8.87974 0.853384 10.3197 0.853384C10.881 0.8354 11.4264 1.0408 11.8363 1.4245C12.2463 1.8082 12.4873 2.33887 12.5064 2.90005C12.5064 4.18672 11.0464 4.71338 10.5064 4.90005C9.74296 5.09927 8.9551 5.18905 8.1664 5.16672ZM10.3131 1.83338C9.54641 1.83338 9.19974 2.72005 9.11307 2.99338C8.99307 3.38005 8.8664 3.76672 8.7264 4.15338C9.20435 4.15035 9.67972 4.08308 10.1397 3.95338C10.5197 3.82005 11.4731 3.46005 11.4731 2.88005C11.4525 2.58947 11.3202 2.31813 11.104 2.12298C10.8877 1.92783 10.6042 1.82404 10.3131 1.83338Z" fill="#939393"/>
<path d="M7.81401 5.16669C7.04247 5.18028 6.27281 5.08604 5.52734 4.88669C3.86734 4.34669 3.52734 3.50003 3.52734 2.88669C3.53013 2.62764 3.58532 2.37183 3.68958 2.13466C3.79384 1.8975 3.94502 1.68389 4.13401 1.50669C4.55428 1.08391 5.12456 0.844291 5.72068 0.840027C6.84068 0.840027 7.40734 1.88669 7.82734 2.63336C8.10028 3.24545 8.32323 3.87863 8.49401 4.52669C8.51466 4.60024 8.51819 4.67753 8.50432 4.75265C8.49045 4.82777 8.45956 4.89871 8.41401 4.96003C8.36985 5.02195 8.31197 5.07282 8.2449 5.10867C8.17782 5.14453 8.10336 5.16438 8.02734 5.16669H7.81401ZM5.64734 1.83336C5.33076 1.847 5.0319 1.98328 4.81401 2.21336C4.71898 2.29716 4.64215 2.39956 4.58825 2.51422C4.53436 2.62889 4.50456 2.75339 4.50068 2.88003C4.50068 3.28669 4.99401 3.68003 5.83401 3.95336C6.32416 4.08005 6.82779 4.1472 7.33401 4.15336C7.22618 3.79833 7.09478 3.45089 6.94068 3.11336L7.33401 2.87336L6.90068 3.11336C6.51401 2.37336 6.18068 1.84669 5.66734 1.83336H5.64734Z" fill="#939393"/>
<path d="M14.1673 6.83335V6.00002C14.1673 5.51379 13.9742 5.04747 13.6303 4.70366C13.2865 4.35984 12.8202 4.16669 12.334 4.16669H3.66732C3.18109 4.16669 2.71477 4.35984 2.37096 4.70366C2.02714 5.04747 1.83398 5.51379 1.83398 6.00002V6.83335H14.1673Z" fill="#939393"/>
<path d="M8.5 7.83337V15.1667H12.3333C12.8196 15.1667 13.2859 14.9736 13.6297 14.6297C13.9735 14.2859 14.1667 13.8196 14.1667 13.3334V7.83337H8.5Z" fill="#939393"/>
<path d="M7.50065 7.83337H1.83398V13.3334C1.83398 13.8196 2.02714 14.2859 2.37096 14.6297C2.71477 14.9736 3.18109 15.1667 3.66732 15.1667H7.50065V7.83337Z" fill="#939393"/>
</svg>
