<svg width="16" height="16" viewBox="0 0 16 16" fill="none" xmlns="http://www.w3.org/2000/svg">
<path d="M8.17189 6.00038C8.08139 6.00038 8.01694 5.99905 7.98894 5.99843C7.88489 5.99589 7.78287 5.96905 7.69104 5.92005C7.59921 5.87105 7.52012 5.80125 7.46009 5.71623C7.40005 5.6312 7.36073 5.53331 7.34528 5.43038C7.32983 5.32745 7.33868 5.22233 7.3711 5.12343C7.60288 4.4203 7.81121 3.70285 7.9909 2.98931C8.38671 1.52576 9.25262 0.666382 10.3132 0.666382C10.9591 0.690497 11.5692 0.969452 12.01 1.44223C12.4508 1.915 12.6865 2.54312 12.6654 3.18917C12.6654 4.74646 11.1035 5.42875 10.5899 5.65271C9.80958 5.90557 8.9918 6.02316 8.17189 6.00038ZM10.3132 1.99972C9.65822 1.99972 9.32032 3.17875 9.28386 3.31287C9.17253 3.75557 9.0508 4.19894 8.91994 4.63903C9.30344 4.62526 9.68298 4.55641 10.0469 4.43461C10.6875 4.15531 11.332 3.79268 11.332 3.18917C11.3525 2.89681 11.2571 2.60815 11.0664 2.38558C10.8758 2.163 10.6052 2.0244 10.3132 1.99972Z" fill="#939393"/>
<path d="M7.7845 6.00039C6.98673 6.01533 6.19209 5.8965 5.43359 5.64882C3.6237 4.94372 3.33984 3.80572 3.33203 3.18983C3.33332 2.84431 3.40407 2.50257 3.54007 2.18494C3.67607 1.86731 3.87455 1.58026 4.1237 1.34087C4.54012 0.920204 5.10416 0.678481 5.69596 0.667053C6.94076 0.703507 7.52863 1.97305 7.95768 2.90013L7.35352 3.18137L7.95833 2.90143C8.23803 3.64338 8.4658 4.40389 8.63997 5.17745C8.66267 5.27346 8.66376 5.37331 8.64317 5.4698C8.62257 5.56628 8.5808 5.65698 8.52087 5.73535C8.46094 5.81372 8.38435 5.87779 8.29664 5.92295C8.20892 5.96811 8.11227 5.99322 8.01367 5.99647C7.98242 5.99777 7.90169 6.00039 7.7845 6.00039ZM5.64388 1.99972C5.41926 2.02062 5.21053 2.12464 5.05859 2.29139C4.93825 2.40521 4.84157 2.54167 4.77409 2.69294C4.70661 2.84421 4.66966 3.00732 4.66536 3.1729C4.67318 3.79204 5.35156 4.18592 5.91862 4.40727C6.30904 4.53888 6.71554 4.61685 7.12695 4.63904C7.0271 4.23852 6.90073 3.84507 6.7487 3.46131L6.74803 3.46001C6.44922 2.81483 6.07747 2.01209 5.6569 2.00039L5.64388 1.99972Z" fill="#939393"/>
<path d="M12.9987 4.66638H2.9987C2.55667 4.66638 2.13275 4.84198 1.82019 5.15454C1.50763 5.4671 1.33203 5.89102 1.33203 6.33305V13.6664C1.33203 14.1084 1.50763 14.5323 1.82019 14.8449C2.13275 15.1575 2.55667 15.333 2.9987 15.333H12.9987C13.2176 15.3331 13.4343 15.29 13.6365 15.2062C13.8387 15.1224 14.0225 14.9997 14.1772 14.8449C14.332 14.6901 14.4548 14.5064 14.5385 14.3042C14.6223 14.102 14.6654 13.8853 14.6654 13.6664V6.33305C14.6654 6.11418 14.6223 5.89744 14.5385 5.69523C14.4548 5.49302 14.332 5.30928 14.1772 5.15452C14.0225 4.99975 13.8387 4.87698 13.6365 4.79323C13.4343 4.70948 13.2176 4.66637 12.9987 4.66638ZM10.5623 10.4864L10.1961 10.8526L8.38203 12.6668C8.33171 12.7171 8.27197 12.757 8.20621 12.7843C8.14046 12.8115 8.06998 12.8255 7.99881 12.8255C7.92764 12.8255 7.85716 12.8115 7.79141 12.7843C7.72566 12.757 7.66591 12.7171 7.61559 12.6668L5.80127 10.8526L5.43506 10.4864C5.27239 10.3236 5.14788 10.1267 5.07051 9.9099C4.99314 9.69314 4.96484 9.46191 4.98765 9.23288C5.01046 9.00386 5.08381 8.78275 5.20241 8.5855C5.32102 8.38826 5.48191 8.21979 5.6735 8.09225C5.9831 7.89525 6.35125 7.81127 6.71565 7.85453C7.08005 7.89779 7.41831 8.06563 7.67318 8.32964L7.9987 8.65519L8.32422 8.32963C8.57908 8.0656 8.91735 7.89776 9.28175 7.85452C9.64616 7.81127 10.0143 7.89528 10.3239 8.09233C10.5155 8.21986 10.6764 8.38831 10.795 8.58555C10.9136 8.78279 10.9869 9.0039 11.0098 9.23292C11.0326 9.46194 11.0043 9.69317 10.9269 9.90992C10.8495 10.1267 10.725 10.3236 10.5623 10.4864Z" fill="#939393"/>
</svg>
