<svg width="16" height="16" viewBox="0 0 16 16" fill="none" xmlns="http://www.w3.org/2000/svg">
<g clip-path="url(#clip0_934_16766)">
<path d="M10.6341 7.47043H15.2056C15.0329 5.22308 13.8398 3.26587 12.0823 2.05859L9.79688 6.01666C10.2229 6.40147 10.5155 6.91044 10.6341 7.47043Z" fill="#939393"/>
<path d="M6.20112 6.01666L3.91627 2.05859C2.15884 3.26648 0.9657 5.22308 0.792969 7.47043H5.36451C5.48315 6.90982 5.77636 6.40024 6.20112 6.01666Z" fill="#939393"/>
<path d="M8.83921 10.5839C8.56813 10.6731 8.28598 10.7241 7.99953 10.7241C7.71308 10.7241 7.43093 10.6731 7.16046 10.5839L4.875 14.5426C5.82103 15.0006 6.87586 15.2667 7.99953 15.2667C9.12382 15.2667 10.178 15.0006 11.1247 14.5426L8.83921 10.5839Z" fill="#939393"/>
<path d="M8.83921 5.34949C8.56813 5.26036 8.28598 5.20933 7.99953 5.20933C7.71308 5.20933 7.43093 5.26036 7.16046 5.34949L4.875 1.3908C5.82103 0.932851 6.87586 0.666685 7.99953 0.666685C9.12382 0.666685 10.178 0.932851 11.1247 1.3908L8.83921 5.34949Z" fill="#939393"/>
<path d="M10.6347 8.5769C10.5161 9.1369 10.2229 9.64526 9.79688 10.0294L12.083 13.99C13.8392 12.7858 15.0323 10.8279 15.2038 8.57752L10.6347 8.5769Z" fill="#939393"/>
<path d="M5.36451 8.5769H0.792969C0.965085 10.8261 2.15822 12.7839 3.9175 13.9875L6.20296 10.0288C5.77636 9.64464 5.48253 9.13628 5.36451 8.5769Z" fill="#939393"/>
<path d="M7.788 6.48237C7.86223 6.33692 8.07006 6.33692 8.14429 6.48237L8.46948 7.11958C8.49854 7.17652 8.55307 7.21614 8.61621 7.22618L9.32271 7.33855C9.48398 7.3642 9.5482 7.56185 9.43281 7.6774L8.92728 8.18358C8.8821 8.22881 8.86127 8.29292 8.87124 8.35607L8.98269 9.06272C9.00814 9.22402 8.84 9.34618 8.69445 9.27214L8.05683 8.94777C7.99985 8.91878 7.93244 8.91878 7.87546 8.94777L7.23784 9.27214C7.09229 9.34618 6.92416 9.22402 6.9496 9.06272L7.06106 8.35607C7.07102 8.29292 7.05019 8.22881 7.00501 8.18358L6.49948 7.6774C6.38409 7.56185 6.44831 7.3642 6.60958 7.33855L7.31609 7.22618C7.37922 7.21614 7.43375 7.17652 7.46282 7.11958L7.788 6.48237Z" fill="#939393"/>
</g>
<defs>
<clipPath id="clip0_934_16766">
<rect width="16" height="16" fill="white"/>
</clipPath>
</defs>
</svg>
