<svg width="16" height="17" viewBox="0 0 16 17" fill="none" xmlns="http://www.w3.org/2000/svg">
<g clip-path="url(#clip0_400_19318)">
<path d="M2.75526 7.87568L9.87546 0.755608C10.0401 0.590796 10.26 0.5 10.4944 0.5C10.7288 0.5 10.9486 0.590796 11.1133 0.755608L11.6377 1.27983C11.9789 1.62142 11.9789 2.1766 11.6377 2.51767L5.65865 8.49668L11.6443 14.4823C11.809 14.6471 11.8999 14.8668 11.8999 15.1011C11.8999 15.3357 11.809 15.5554 11.6443 15.7203L11.1199 16.2444C10.9551 16.4092 10.7354 16.5 10.501 16.5C10.2666 16.5 10.0468 16.4092 9.8821 16.2444L2.75526 9.11782C2.59019 8.95248 2.49952 8.73174 2.50004 8.49707C2.49952 8.2615 2.59019 8.04088 2.75526 7.87568Z" fill="#A68E62"/>
</g>
<defs>
<clipPath id="clip0_400_19318">
<rect width="16" height="16" fill="white" transform="translate(0 0.5)"/>
</clipPath>
</defs>
</svg>
