<svg width="16" height="16" viewBox="0 0 16 16" fill="none" xmlns="http://www.w3.org/2000/svg">
<path d="M12.9824 6.82445H9.90624L12.5268 1.3329C12.5958 1.18857 12.6249 1.03048 12.6115 0.873004C12.5981 0.715529 12.5427 0.563665 12.4503 0.431219C12.3578 0.298773 12.2313 0.189947 12.0822 0.114637C11.9331 0.0393262 11.7662 -8.03545e-05 11.5966 3.01803e-07H6.00316C5.78958 -0.000158502 5.58137 0.0623561 5.4081 0.178667C5.23483 0.294978 5.10531 0.459173 5.03793 0.647937L2.05238 8.98894C2.00129 9.13144 1.98731 9.28321 2.0116 9.43174C2.03589 9.58026 2.09774 9.72128 2.19206 9.84315C2.28639 9.96503 2.41047 10.0643 2.55408 10.1327C2.69769 10.2011 2.85671 10.2368 3.01802 10.2367H6.57682L5.47801 14.8433C5.42555 15.0508 5.4509 15.2688 5.54983 15.461C5.64877 15.6532 5.81534 15.8082 6.02187 15.9C6.16367 15.9653 6.31966 15.9995 6.47785 16C6.62628 15.9995 6.77275 15.9685 6.90677 15.9091C7.0408 15.8497 7.15905 15.7634 7.25306 15.6564L13.7644 8.37876C13.8881 8.24035 13.967 8.07197 13.9917 7.89334C14.0164 7.71471 13.9859 7.53322 13.9039 7.37013C13.8218 7.20704 13.6916 7.0691 13.5284 6.97246C13.3652 6.87582 13.1758 6.82448 12.9824 6.82445Z" fill="#FF8137"/>
</svg>
