<svg width="16" height="16" viewBox="0 0 16 16" fill="none" xmlns="http://www.w3.org/2000/svg">
<g clip-path="url(#clip0_934_16329)">
<path d="M10.6351 7.47043H15.2066C15.0339 5.22308 13.8407 3.26587 12.0833 2.05859L9.79785 6.01666C10.2238 6.40147 10.5164 6.91044 10.6351 7.47043Z" fill="#FF8137"/>
<path d="M6.2021 6.01666L3.91725 2.05859C2.15981 3.26648 0.966677 5.22308 0.793945 7.47043H5.36549C5.48412 6.90982 5.77734 6.40024 6.2021 6.01666Z" fill="#FF8137"/>
<path d="M8.84019 10.5839C8.56911 10.6731 8.28696 10.7241 8.00051 10.7241C7.71406 10.7241 7.43191 10.6731 7.16144 10.5839L4.87598 14.5426C5.822 15.0006 6.87683 15.2667 8.00051 15.2667C9.1248 15.2667 10.179 15.0006 11.1257 14.5426L8.84019 10.5839Z" fill="#FF8137"/>
<path d="M8.84019 5.34949C8.56911 5.26036 8.28696 5.20933 8.00051 5.20933C7.71406 5.20933 7.43191 5.26036 7.16144 5.34949L4.87598 1.3908C5.822 0.932851 6.87683 0.666685 8.00051 0.666685C9.1248 0.666685 10.179 0.932851 11.1257 1.3908L8.84019 5.34949Z" fill="#FF8137"/>
<path d="M10.6347 8.5769C10.5161 9.1369 10.2229 9.64526 9.79688 10.0294L12.083 13.99C13.8392 12.7858 15.0323 10.8279 15.2038 8.57752L10.6347 8.5769Z" fill="#FF8137"/>
<path d="M5.36549 8.5769H0.793945C0.966062 10.8261 2.1592 12.7839 3.91848 13.9875L6.20394 10.0288C5.77734 9.64464 5.48351 9.13628 5.36549 8.5769Z" fill="#FF8137"/>
<path d="M7.788 6.48237C7.86223 6.33692 8.07006 6.33692 8.14429 6.48237L8.46948 7.11958C8.49854 7.17652 8.55307 7.21614 8.61621 7.22618L9.32271 7.33855C9.48398 7.3642 9.5482 7.56185 9.43281 7.6774L8.92728 8.18358C8.8821 8.22881 8.86127 8.29292 8.87124 8.35607L8.98269 9.06272C9.00814 9.22402 8.84 9.34618 8.69445 9.27214L8.05683 8.94777C7.99985 8.91878 7.93244 8.91878 7.87546 8.94777L7.23784 9.27214C7.09229 9.34618 6.92416 9.22402 6.9496 9.06272L7.06106 8.35607C7.07102 8.29292 7.05019 8.22881 7.00501 8.18358L6.49948 7.6774C6.38409 7.56185 6.44831 7.3642 6.60958 7.33855L7.31609 7.22618C7.37922 7.21614 7.43375 7.17652 7.46282 7.11958L7.788 6.48237Z" fill="#FF8137"/>
</g>
<defs>
<clipPath id="clip0_934_16329">
<rect width="16" height="16" fill="white"/>
</clipPath>
</defs>
</svg>
