<svg width="20" height="20" viewBox="0 0 20 20" fill="none" xmlns="http://www.w3.org/2000/svg">
<path fill-rule="evenodd" clip-rule="evenodd" d="M16.848 6.30931L15.7377 7.4196C16.6053 8.42267 17.1653 9.41195 17.4136 9.89591C16.8036 11.085 14.3118 15.3242 10.0002 15.3242C9.32743 15.3242 8.69897 15.2209 8.11505 15.0422L6.89448 16.2628C7.81559 16.6419 8.8497 16.8751 10.0002 16.8751C15.9401 16.8751 18.7777 10.6606 18.9781 10.2218L18.9852 10.2061C19.0262 10.1078 19.0473 10.0024 19.0473 9.89591C19.0473 9.78944 19.0262 9.68402 18.9852 9.58573L18.9781 9.57006C18.8827 9.36113 18.1894 7.84277 16.848 6.30931ZM3.46427 13.8263C1.91807 12.1835 1.12486 10.4463 1.02233 10.2218L1.01516 10.2061C0.974209 10.1078 0.953125 10.0024 0.953125 9.89591C0.953125 9.78944 0.974209 9.68402 1.01516 9.58573L1.02233 9.57006C1.22268 9.13129 4.06031 2.91675 10.0002 2.91675C11.3433 2.91675 12.5279 3.23451 13.5591 3.7314L12.3713 4.91925C11.6543 4.63772 10.8637 4.46767 10.0002 4.46767C5.68862 4.46767 3.1968 8.70687 2.58677 9.89591C2.86354 10.4354 3.52768 11.6027 4.57338 12.7172L3.46427 13.8263ZM9.90248 13.2548C9.93501 13.2557 9.96758 13.2562 10.0002 13.2562C10.8906 13.2535 11.7437 12.8986 12.3733 12.269C13.0029 11.6394 13.3578 10.7862 13.3605 9.89586C13.3605 9.86325 13.3601 9.83068 13.3591 9.79815L9.90248 13.2548ZM10.6846 6.60595L6.71028 10.5803C6.61882 10.1406 6.61598 9.68491 6.70442 9.24029C6.83408 8.58845 7.15412 7.9897 7.62407 7.51974C8.09402 7.04979 8.69278 6.72975 9.34462 6.60009C9.78923 6.51165 10.2449 6.5145 10.6846 6.60595Z" fill="#A68E62"/>
<rect x="17.5215" y="1.53687" width="1.6484" height="22.6833" rx="0.824199" transform="rotate(45 17.5215 1.53687)" fill="#A68E62"/>
</svg>
