<svg width="20" height="20" viewBox="0 0 20 20" fill="none" xmlns="http://www.w3.org/2000/svg">
<path d="M10.0002 16.8751C3.97226 16.8751 1.13924 10.4749 1.01516 10.2061C0.974209 10.1078 0.953125 10.0024 0.953125 9.89591C0.953125 9.78944 0.974209 9.68402 1.01516 9.58573C1.13924 9.3169 3.97226 2.91675 10.0002 2.91675C16.0281 2.91675 18.8612 9.3169 18.9852 9.58573C19.0262 9.68402 19.0473 9.78944 19.0473 9.89591C19.0473 10.0024 19.0262 10.1078 18.9852 10.2061C18.8612 10.4749 16.0281 16.8751 10.0002 16.8751ZM2.58677 9.89591C3.1968 11.085 5.68862 15.3242 10.0002 15.3242C14.3118 15.3242 16.8036 11.085 17.4136 9.89591C16.8036 8.70687 14.3118 4.46767 10.0002 4.46767C5.68862 4.46767 3.1968 8.70687 2.58677 9.89591Z" fill="#A68E62"/>
<path d="M10.001 13.2563C9.33635 13.2563 8.68667 13.0592 8.13406 12.69C7.58146 12.3208 7.15075 11.796 6.89642 11.1819C6.64208 10.5679 6.57553 9.89226 6.70519 9.24042C6.83485 8.58857 7.1549 7.98982 7.62485 7.51987C8.0948 7.04992 8.69355 6.72987 9.3454 6.60021C9.99724 6.47055 10.6729 6.5371 11.2869 6.79144C11.9009 7.04577 12.4257 7.47648 12.795 8.02908C13.1642 8.58169 13.3613 9.23137 13.3613 9.89599C13.3586 10.7864 13.0037 11.6395 12.3741 12.2691C11.7445 12.8987 10.8913 13.2536 10.001 13.2563ZM10.001 8.08657C9.6431 8.08657 9.29327 8.19269 8.99571 8.39151C8.69815 8.59033 8.46624 8.87293 8.32929 9.20355C8.19234 9.53418 8.1565 9.89799 8.22632 10.249C8.29614 10.6 8.46847 10.9224 8.72152 11.1754C8.97457 11.4285 9.29698 11.6008 9.64797 11.6706C9.99896 11.7404 10.3628 11.7046 10.6934 11.5677C11.024 11.4307 11.3066 11.1988 11.5054 10.9012C11.7043 10.6037 11.8104 10.2539 11.8104 9.89599C11.8077 9.41694 11.6162 8.95828 11.2774 8.61954C10.9387 8.28079 10.48 8.08929 10.001 8.08657Z" fill="#A68E62"/>
</svg>
