<svg width="16" height="16" viewBox="0 0 16 16" fill="none" xmlns="http://www.w3.org/2000/svg">
<g clip-path="url(#clip0_934_16464)">
<path d="M8.17352 0.501973C7.95252 0.496473 7.73152 0.501973 7.51152 0.516473C6.08452 0.609973 4.73752 1.07097 3.55052 1.96397V1.49797C3.54952 1.22347 3.32702 1.00097 3.05252 0.999973C2.77652 0.998973 2.55152 1.22197 2.55052 1.49797V3.04797C2.55052 3.49347 3.08752 3.71597 3.40302 3.40247C5.71252 1.09347 9.36802 0.853972 11.9585 2.84197C14.549 4.82997 15.263 8.42197 13.631 11.25C11.998 14.078 8.53202 15.253 5.51502 14.003C2.49802 12.753 0.879524 9.47247 1.72502 6.31847C1.79702 6.05147 1.63802 5.77697 1.37052 5.70597C1.10452 5.63347 0.830023 5.79047 0.757023 6.05647C-0.215977 9.68847 1.65752 13.49 5.13102 14.9295C8.60452 16.3685 12.6155 15.003 14.4955 11.748C16.3755 8.49297 15.5515 4.33647 12.5685 2.04797C11.2635 1.04647 9.71952 0.536473 8.17352 0.501973ZM8.00202 2.88297C5.18152 2.88297 2.88202 5.17897 2.88202 7.99897C2.88202 10.819 5.18202 13.118 8.00202 13.118C10.822 13.118 13.117 10.8185 13.117 7.99897C13.117 5.17947 10.822 2.88297 8.00202 2.88297ZM8.00202 4.85747C8.27802 4.85847 8.50102 5.08347 8.50002 5.35947V5.43647C9.00002 5.50447 9.42852 5.81447 9.65602 6.24597C9.78402 6.49047 9.68952 6.79247 9.44452 6.92097C9.20102 7.04897 8.89852 6.95497 8.76952 6.71097C8.68002 6.54047 8.50702 6.42297 8.29302 6.42297H7.82802C7.52102 6.42297 7.28902 6.65497 7.28902 6.96197C7.28902 7.26897 7.52102 7.50097 7.82802 7.50097H8.00202H8.02652H8.17502C9.01902 7.50097 9.71002 8.19647 9.71002 9.03997C9.71002 9.77247 9.18952 10.3905 8.50002 10.542V10.6415C8.49902 10.916 8.27652 11.1385 8.00202 11.1395C7.72552 11.141 7.50002 10.918 7.49902 10.6415V10.5635C7.00002 10.4945 6.57152 10.1865 6.34452 9.75597C6.21552 9.51197 6.31002 9.20847 6.55452 9.07997C6.79952 8.95097 7.10202 9.04597 7.23052 9.29097C7.32002 9.46147 7.49652 9.57797 7.71002 9.57797H8.17502C8.48252 9.57797 8.71002 9.34697 8.71002 9.03997C8.71002 8.73297 8.48252 8.50097 8.17502 8.50097H8.00202H7.82802C6.98402 8.50097 6.28902 7.80547 6.28902 6.96197C6.28902 6.23147 6.81102 5.61397 7.49902 5.46097V5.35947C7.49802 5.08147 7.72352 4.85597 8.00202 4.85747Z" fill="#4F95B1"/>
</g>
<defs>
<clipPath id="clip0_934_16464">
<rect width="16" height="16" fill="white"/>
</clipPath>
</defs>
</svg>
