<svg width="16" height="16" viewBox="0 0 16 16" fill="none" xmlns="http://www.w3.org/2000/svg">
<g clip-path="url(#clip0_934_16562)">
<path d="M14.1074 0.350586H5.16492C4.14353 0.350586 3.3007 1.17916 3.2793 2.20055H10.8361C12.6646 2.20055 14.1502 3.69333 14.1502 5.52184V12.3716C15.1717 12.3502 16.0002 11.5074 16.0002 10.4788V2.2434C16.0002 1.20056 15.1502 0.350586 14.1074 0.350586Z" fill="#E98020"/>
<path d="M10.8353 3.62891H1.89281C0.849974 3.62891 0 4.47888 0 5.52168V6.86449H12.7209V5.52168C12.7209 4.47888 11.8709 3.62891 10.8353 3.62891Z" fill="#E98020"/>
<path d="M0 13.7571C0 14.7999 0.849974 15.6499 1.89281 15.6499H10.8353C11.8709 15.6499 12.7209 14.7999 12.7209 13.7571V8.29297H0V13.7571ZM7.36392 11.3643H9.50671C9.89958 11.3643 10.221 11.6786 10.221 12.0786C10.221 12.4714 9.89958 12.7928 9.50671 12.7928H7.36392C6.97108 12.7928 6.64965 12.4714 6.64965 12.0786C6.64965 11.6786 6.97108 11.3643 7.36392 11.3643Z" fill="#E98020"/>
</g>
<defs>
<clipPath id="clip0_934_16562">
<rect width="16" height="16" fill="white"/>
</clipPath>
</defs>
</svg>
