<svg width="16" height="16" viewBox="0 0 16 16" fill="none" xmlns="http://www.w3.org/2000/svg">
<path d="M8.16445 5.16672H7.99778C7.91929 5.16352 7.84261 5.14212 7.77381 5.1042C7.70501 5.06628 7.64597 5.01288 7.60136 4.94822C7.55674 4.88356 7.52777 4.80941 7.51674 4.73163C7.50571 4.65385 7.51291 4.57457 7.53779 4.50005C7.77112 3.91338 7.98445 3.31338 8.15778 2.72672C8.30445 2.27338 8.87778 0.853384 10.3178 0.853384C10.879 0.8354 11.4244 1.0408 11.8344 1.4245C12.2443 1.8082 12.4853 2.33887 12.5045 2.90005C12.5045 4.18672 11.0445 4.71338 10.5045 4.90005C9.74101 5.09927 8.95314 5.18905 8.16445 5.16672ZM10.3111 1.83338C9.54445 1.83338 9.19778 2.72005 9.11112 2.99338C8.99112 3.38005 8.86445 3.76672 8.72445 4.15338C9.2024 4.15035 9.67776 4.08308 10.1378 3.95338C10.5178 3.82005 11.4711 3.46005 11.4711 2.88005C11.4506 2.58947 11.3183 2.31813 11.102 2.12298C10.8857 1.92783 10.6023 1.82404 10.3111 1.83338Z" fill="#E98020"/>
<path d="M7.81206 5.16669C7.04052 5.18028 6.27086 5.08604 5.52539 4.88669C3.86539 4.34669 3.52539 3.50003 3.52539 2.88669C3.52818 2.62764 3.58336 2.37183 3.68762 2.13466C3.79188 1.8975 3.94306 1.68389 4.13206 1.50669C4.55232 1.08391 5.12261 0.844291 5.71872 0.840027C6.83872 0.840027 7.40539 1.88669 7.82539 2.63336C8.09833 3.24545 8.32128 3.87863 8.49206 4.52669C8.51271 4.60024 8.51624 4.67753 8.50237 4.75265C8.4885 4.82777 8.45761 4.89871 8.41206 4.96003C8.3679 5.02195 8.31002 5.07282 8.24294 5.10867C8.17587 5.14453 8.10141 5.16438 8.02539 5.16669H7.81206ZM5.64539 1.83336C5.3288 1.847 5.02994 1.98328 4.81206 2.21336C4.71703 2.29716 4.64019 2.39956 4.5863 2.51422C4.53241 2.62889 4.5026 2.75339 4.49872 2.88003C4.49872 3.28669 4.99206 3.68003 5.83206 3.95336C6.32221 4.08005 6.82584 4.1472 7.33206 4.15336C7.22423 3.79833 7.09282 3.45089 6.93872 3.11336L7.33206 2.87336L6.89872 3.11336C6.51206 2.37336 6.17872 1.84669 5.66539 1.83336H5.64539Z" fill="#E98020"/>
<path d="M14.1654 6.83335V6.00002C14.1654 5.51379 13.9722 5.04747 13.6284 4.70366C13.2846 4.35984 12.8183 4.16669 12.332 4.16669H3.66536C3.17913 4.16669 2.71282 4.35984 2.369 4.70366C2.02519 5.04747 1.83203 5.51379 1.83203 6.00002V6.83335H14.1654Z" fill="#E98020"/>
<path d="M8.5 7.83337V15.1667H12.3333C12.8196 15.1667 13.2859 14.9736 13.6297 14.6297C13.9735 14.2859 14.1667 13.8196 14.1667 13.3334V7.83337H8.5Z" fill="#E98020"/>
<path d="M7.4987 7.83337H1.83203V13.3334C1.83203 13.8196 2.02519 14.2859 2.369 14.6297C2.71282 14.9736 3.17913 15.1667 3.66536 15.1667H7.4987V7.83337Z" fill="#E98020"/>
</svg>
