<svg width="16" height="16" viewBox="0 0 16 16" fill="none" xmlns="http://www.w3.org/2000/svg">
<path fill-rule="evenodd" clip-rule="evenodd" d="M1.33758 14.9584C1.54194 15.043 1.77716 14.9962 1.93357 14.8398L2.04054 14.7328C2.78207 13.9913 3.91263 13.8002 4.84081 14.2653C5.78118 14.7366 6.84424 15.0005 7.97118 15C11.8203 15.0016 14.9627 11.9236 14.9997 8.06862C15.0369 4.189 11.937 1 8 1C4.12475 1 0.964495 4.18433 1.0003 8.06593L1 14.4531C0.99999 14.6743 1.13323 14.8737 1.33758 14.9584ZM4.49987 8.87395C4.98312 8.87395 5.37487 8.4822 5.37487 7.99895C5.37487 7.51571 4.98312 7.12395 4.49987 7.12395C4.01662 7.12395 3.62487 7.51571 3.62487 7.99895C3.62487 8.4822 4.01662 8.87395 4.49987 8.87395ZM8.87494 7.99889C8.87494 8.48213 8.48319 8.87389 7.99994 8.87389C7.51669 8.87389 7.12494 8.48213 7.12494 7.99889C7.12494 7.51564 7.51669 7.12389 7.99994 7.12389C8.48319 7.12389 8.87494 7.51564 8.87494 7.99889ZM11.4996 8.87389C11.9829 8.87389 12.3746 8.48213 12.3746 7.99889C12.3746 7.51564 11.9829 7.12389 11.4996 7.12389C11.0164 7.12389 10.6246 7.51564 10.6246 7.99889C10.6246 8.48213 11.0164 8.87389 11.4996 8.87389Z" fill="#C38D36"/>
</svg>
