<svg width="16" height="16" viewBox="0 0 16 16" fill="none" xmlns="http://www.w3.org/2000/svg">
<path d="M8.1664 5.16672H7.99974C7.92124 5.16352 7.84457 5.14212 7.77577 5.1042C7.70697 5.06628 7.64793 5.01288 7.60331 4.94822C7.5587 4.88356 7.52973 4.80941 7.51869 4.73163C7.50766 4.65385 7.51487 4.57457 7.53974 4.50005C7.77307 3.91338 7.9864 3.31338 8.15974 2.72672C8.3064 2.27338 8.87974 0.853384 10.3197 0.853384C10.881 0.8354 11.4264 1.0408 11.8363 1.4245C12.2463 1.8082 12.4873 2.33887 12.5064 2.90005C12.5064 4.18672 11.0464 4.71338 10.5064 4.90005C9.74296 5.09927 8.9551 5.18905 8.1664 5.16672ZM10.3131 1.83338C9.54641 1.83338 9.19974 2.72005 9.11307 2.99338C8.99307 3.38005 8.8664 3.76672 8.7264 4.15338C9.20435 4.15035 9.67972 4.08308 10.1397 3.95338C10.5197 3.82005 11.4731 3.46005 11.4731 2.88005C11.4525 2.58947 11.3202 2.31813 11.104 2.12298C10.8877 1.92783 10.6042 1.82404 10.3131 1.83338Z" fill="#C38D36"/>
<path d="M7.81303 5.16669C7.04149 5.18028 6.27183 5.08604 5.52637 4.88669C3.86637 4.34669 3.52637 3.50003 3.52637 2.88669C3.52915 2.62764 3.58434 2.37183 3.6886 2.13466C3.79286 1.8975 3.94404 1.68389 4.13303 1.50669C4.5533 1.08391 5.12359 0.844291 5.7197 0.840027C6.8397 0.840027 7.40637 1.88669 7.82637 2.63336C8.09931 3.24545 8.32226 3.87863 8.49303 4.52669C8.51369 4.60024 8.51721 4.67753 8.50335 4.75265C8.48948 4.82777 8.45858 4.89871 8.41303 4.96003C8.36887 5.02195 8.311 5.07282 8.24392 5.10867C8.17684 5.14453 8.10239 5.16438 8.02637 5.16669H7.81303ZM5.64637 1.83336C5.32978 1.847 5.03092 1.98328 4.81303 2.21336C4.71801 2.29716 4.64117 2.39956 4.58728 2.51422C4.53338 2.62889 4.50358 2.75339 4.4997 2.88003C4.4997 3.28669 4.99303 3.68003 5.83303 3.95336C6.32318 4.08005 6.82681 4.1472 7.33303 4.15336C7.2252 3.79833 7.0938 3.45089 6.9397 3.11336L7.33303 2.87336L6.8997 3.11336C6.51303 2.37336 6.1797 1.84669 5.66637 1.83336H5.64637Z" fill="#C38D36"/>
<path d="M14.1663 6.83335V6.00002C14.1663 5.51379 13.9732 5.04747 13.6294 4.70366C13.2856 4.35984 12.8192 4.16669 12.333 4.16669H3.66634C3.18011 4.16669 2.7138 4.35984 2.36998 4.70366C2.02616 5.04747 1.83301 5.51379 1.83301 6.00002V6.83335H14.1663Z" fill="#C38D36"/>
<path d="M8.5 7.83337V15.1667H12.3333C12.8196 15.1667 13.2859 14.9736 13.6297 14.6297C13.9735 14.2859 14.1667 13.8196 14.1667 13.3334V7.83337H8.5Z" fill="#C38D36"/>
<path d="M7.49967 7.83337H1.83301V13.3334C1.83301 13.8196 2.02616 14.2859 2.36998 14.6297C2.7138 14.9736 3.18011 15.1667 3.66634 15.1667H7.49967V7.83337Z" fill="#C38D36"/>
</svg>
