<svg width="16" height="17" viewBox="0 0 16 17" fill="none" xmlns="http://www.w3.org/2000/svg">
<g clip-path="url(#clip0_243_25133)">
<path d="M8.62432 12.9444L15.7444 5.82424C15.9092 5.65956 16 5.43973 16 5.20532C16 4.97092 15.9092 4.75108 15.7444 4.5864L15.2202 4.06205C14.8786 3.72085 14.3234 3.72085 13.9823 4.06205L8.00332 10.0411L2.01767 4.05541C1.85286 3.89073 1.63316 3.7998 1.39888 3.7998C1.16435 3.7998 0.944641 3.89073 0.779699 4.05541L0.255606 4.57977C0.0907944 4.74458 -1.16465e-06 4.96428 -1.1749e-06 5.19869C-1.18515e-06 5.43309 0.0907944 5.65293 0.255606 5.81761L7.38218 12.9444C7.54751 13.1095 7.76826 13.2002 8.00293 13.1997C8.2385 13.2002 8.45912 13.1095 8.62432 12.9444Z" fill="#E0CAA3"/>
</g>
<defs>
<clipPath id="clip0_243_25133">
<rect width="16" height="16" fill="white" transform="translate(0 0.5)"/>
</clipPath>
</defs>
</svg>
