<svg width="12" height="12" viewBox="0 0 12 12" fill="none" xmlns="http://www.w3.org/2000/svg">
<g clip-path="url(#clip0_606_31742)">
<path d="M5.53176 2.06651L0.191706 7.40666C0.068097 7.53017 1.46669e-08 7.69505 1.25705e-08 7.87085C1.0474e-08 8.04665 0.068097 8.21153 0.191706 8.33504L0.584873 8.72831C0.841066 8.98421 1.25745 8.98421 1.51326 8.72831L5.99751 4.24405L10.4867 8.73328C10.6104 8.85679 10.7751 8.92499 10.9508 8.92499C11.1267 8.92499 11.2915 8.85679 11.4152 8.73328L11.8083 8.34002C11.9319 8.21641 12 8.05163 12 7.87583C12 7.70002 11.9319 7.53515 11.8083 7.41163L6.46336 2.06651C6.33936 1.9427 6.1738 1.8747 5.99781 1.87509C5.82112 1.8747 5.65566 1.9427 5.53176 2.06651Z" fill="#7C612F"/>
</g>
<defs>
<clipPath id="clip0_606_31742">
<rect width="12" height="12" fill="white"/>
</clipPath>
</defs>
</svg>
