<svg width="20" height="20" viewBox="0 0 20 20" fill="none" xmlns="http://www.w3.org/2000/svg">
<g clip-path="url(#clip0_606_31659)">
<path fill-rule="evenodd" clip-rule="evenodd" d="M0.228823 19.7711C0.53392 20.0762 1.02858 20.0762 1.33368 19.7711L7.61778 13.487C7.92287 13.1819 7.92287 12.6872 7.61778 12.3821C7.31268 12.077 6.81802 12.077 6.51292 12.3821L0.228823 18.6662C-0.0762743 18.9713 -0.0762743 19.466 0.228823 19.7711Z" fill="#E0CAA3"/>
<path fill-rule="evenodd" clip-rule="evenodd" d="M11.485 18.1353C11.6922 18.1353 11.8909 18.053 12.0374 17.9065C13.7619 16.1819 14.4025 13.7848 13.9623 11.5622L18.6666 6.8579C18.9717 6.5528 18.9716 6.05814 18.6666 5.75305C18.3615 5.44795 17.8668 5.44795 17.5617 5.75305L12.5511 10.7637C12.3539 10.9609 12.2768 11.2483 12.3487 11.5177C12.7726 13.1049 12.4708 14.8431 11.4458 16.21L3.79019 8.55434C5.1571 7.52941 6.8952 7.22764 8.48248 7.65152C8.75192 7.72348 9.03928 7.64635 9.23648 7.44915L14.2471 2.43849C14.5522 2.13339 14.5522 1.63873 14.2471 1.33364C13.942 1.02854 13.4474 1.02854 13.1423 1.33364L8.43798 6.03795C6.21532 5.59767 3.81823 6.23824 2.09376 7.96279C1.78867 8.26789 1.78868 8.76254 2.09377 9.06763L10.9326 17.9065C11.0791 18.053 11.2778 18.1353 11.485 18.1353Z" fill="#E0CAA3"/>
<path fill-rule="evenodd" clip-rule="evenodd" d="M19.7714 7.96277C20.0765 7.65767 20.0765 7.16301 19.7714 6.85792L13.1423 0.228777C12.8372 -0.07632 12.3425 -0.07632 12.0374 0.228777C11.7323 0.533874 11.7323 1.02853 12.0374 1.33363L18.6666 7.96277C18.9717 8.26787 19.4663 8.26787 19.7714 7.96277Z" fill="#E0CAA3"/>
</g>
<defs>
<clipPath id="clip0_606_31659">
<rect width="20" height="20" fill="white"/>
</clipPath>
</defs>
</svg>
