<svg width="10" height="10" viewBox="0 0 10 10" fill="none" xmlns="http://www.w3.org/2000/svg">
<path d="M7.73322 5.49512C7.73736 5.41611 7.73736 5.33707 7.73736 5.25806C7.73736 3.3165 6.87792 1.48742 5.32435 0.125001C5.13428 -0.0416671 4.85745 -0.0416671 4.67151 0.125001C3.00635 1.58741 2.17998 3.54148 2.25848 5.49555C2.25853 5.4968 2.25881 5.49804 2.25886 5.49929C1.64561 5.8354 1.25 6.53101 1.25 7.31804V8.88637C1.25 9.07557 1.35862 9.24979 1.5265 9.33442C1.72774 9.42144 1.91483 9.38817 2.04987 9.27468L3.10107 8.44055C3.1012 8.44078 3.10128 8.44101 3.1014 8.44124C3.20883 8.63708 3.32865 8.82872 3.46087 9.02038C3.5559 9.15371 3.70464 9.23288 3.86579 9.23288H4.50625V9.5021C4.50625 9.77731 4.72709 10 5.00001 10C5.27291 10 5.49375 9.77731 5.49375 9.5021V9.23288H6.13005C6.2912 9.23288 6.43994 9.15371 6.53499 9.02038C6.66721 8.82872 6.78703 8.63708 6.89446 8.43707C6.89446 8.43709 6.89446 8.43704 6.89446 8.43707L7.95013 9.27468C8.08419 9.38735 8.27078 9.42205 8.4735 9.33442C8.64136 9.24979 8.75 9.07557 8.75 8.88637V7.31804C8.75 6.52765 8.35096 5.82955 7.73322 5.49512ZM4.99378 2.56237C5.57226 2.56237 6.03916 3.03735 6.03916 3.6165C6.03916 4.19562 5.57226 4.6706 4.99378 4.6706C4.41947 4.6706 3.95257 4.19562 3.95257 3.6165C3.95257 3.03735 4.41947 2.56237 4.99378 2.56237Z" fill="#FED970"/>
</svg>
