<svg width="32" height="32" viewBox="0 0 32 32" fill="none" xmlns="http://www.w3.org/2000/svg">
<rect x="0.5" y="0.5" width="31" height="31" rx="15.5" fill="#251C06"/>
<rect x="0.5" y="0.5" width="31" height="31" rx="15.5" stroke="#3B2B0D"/>
<g clip-path="url(#clip0_179_4838)">
<path d="M16.4267 11.6133L9.56666 18.4733C9.31388 18.7265 9.15413 19.0578 9.11333 19.4133L8.84 21.8133C8.82218 21.9821 8.84016 22.1527 8.89277 22.314C8.94538 22.4754 9.03144 22.6238 9.14531 22.7497C9.25919 22.8755 9.39833 22.9759 9.55365 23.0443C9.70896 23.1127 9.87696 23.1476 10.0467 23.1466H10.1867L12.5867 22.8733C12.9407 22.8323 13.2713 22.6753 13.5267 22.4266L20.3867 15.5599L16.4267 11.6133Z" fill="#E8B21D"/>
<path d="M22.7067 11.0333L20.9667 9.29335C20.8211 9.14721 20.6481 9.03125 20.4576 8.95213C20.2672 8.87301 20.0629 8.83228 19.8567 8.83228C19.6504 8.83228 19.4462 8.87301 19.2557 8.95213C19.0652 9.03125 18.8922 9.14721 18.7467 9.29335L17.1333 10.9067L21.0933 14.8667L22.7067 13.2533C22.8528 13.1078 22.9688 12.9348 23.0479 12.7443C23.127 12.5538 23.1677 12.3496 23.1677 12.1433C23.1677 11.9371 23.127 11.7329 23.0479 11.5424C22.9688 11.3519 22.8528 11.1789 22.7067 11.0333Z" fill="#E8B21D"/>
</g>
<defs>
<clipPath id="clip0_179_4838">
<rect width="16" height="16" fill="white" transform="translate(8 8)"/>
</clipPath>
</defs>
</svg>
