<svg width="16" height="16" viewBox="0 0 16 16" fill="none" xmlns="http://www.w3.org/2000/svg">
<path d="M8.17287 6.00038C8.08237 6.00038 8.01791 5.99905 7.98992 5.99843C7.88587 5.99589 7.78385 5.96905 7.69202 5.92005C7.60019 5.87105 7.5211 5.80125 7.46106 5.71623C7.40103 5.6312 7.36171 5.53331 7.34626 5.43038C7.33081 5.32745 7.33965 5.22233 7.37208 5.12343C7.60385 4.4203 7.81219 3.70285 7.99187 2.98931C8.38769 1.52576 9.25359 0.666382 10.3141 0.666382C10.9601 0.690497 11.5702 0.969452 12.011 1.44223C12.4518 1.915 12.6874 2.54312 12.6664 3.18917C12.6664 4.74646 11.1045 5.42875 10.5908 5.65271C9.81055 5.90557 8.99278 6.02316 8.17287 6.00038ZM10.3141 1.99972C9.65919 1.99972 9.3213 3.17875 9.28484 3.31287C9.17351 3.75557 9.05177 4.19894 8.92091 4.63903C9.30442 4.62526 9.68395 4.55641 10.0479 4.43461C10.6885 4.15531 11.333 3.79268 11.333 3.18917C11.3535 2.89681 11.2581 2.60815 11.0674 2.38558C10.8768 2.163 10.6062 2.0244 10.3141 1.99972Z" fill="#AF3BF3"/>
<path d="M7.78548 6.00039C6.98771 6.01533 6.19307 5.8965 5.43457 5.64882C3.62467 4.94372 3.34082 3.80572 3.33301 3.18983C3.3343 2.84431 3.40505 2.50257 3.54105 2.18494C3.67705 1.86731 3.87552 1.58026 4.12467 1.34087C4.5411 0.920204 5.10513 0.678481 5.69694 0.667053C6.94173 0.703507 7.52961 1.97305 7.95866 2.90013L7.3545 3.18137L7.95931 2.90143C8.23901 3.64338 8.46677 4.40389 8.64095 5.17745C8.66365 5.27346 8.66474 5.37331 8.64414 5.4698C8.62355 5.56628 8.58177 5.65698 8.52185 5.73535C8.46192 5.81372 8.38533 5.87779 8.29761 5.92295C8.2099 5.96811 8.11325 5.99322 8.01465 5.99647C7.9834 5.99777 7.90267 6.00039 7.78548 6.00039ZM5.64485 1.99972C5.42023 2.02062 5.21151 2.12464 5.05957 2.29139C4.93923 2.40521 4.84254 2.54167 4.77506 2.69294C4.70758 2.84421 4.67064 3.00732 4.66634 3.1729C4.67415 3.79204 5.35254 4.18592 5.91959 4.40727C6.31002 4.53888 6.71651 4.61685 7.12793 4.63904C7.02807 4.23852 6.90171 3.84507 6.74967 3.46131L6.74901 3.46001C6.45019 2.81483 6.07845 2.01209 5.65787 2.00039L5.64485 1.99972Z" fill="#AF3BF3"/>
<path d="M12.9997 4.66638H2.99967C2.55765 4.66638 2.13372 4.84198 1.82116 5.15454C1.5086 5.4671 1.33301 5.89102 1.33301 6.33305V13.6664C1.33301 14.1084 1.5086 14.5323 1.82116 14.8449C2.13372 15.1575 2.55765 15.333 2.99967 15.333H12.9997C13.2185 15.3331 13.4353 15.29 13.6375 15.2062C13.8397 15.1224 14.0234 14.9997 14.1782 14.8449C14.333 14.6901 14.4557 14.5064 14.5395 14.3042C14.6232 14.102 14.6664 13.8853 14.6663 13.6664V6.33305C14.6664 6.11418 14.6232 5.89744 14.5395 5.69523C14.4557 5.49302 14.333 5.30928 14.1782 5.15452C14.0234 4.99975 13.8397 4.87698 13.6375 4.79323C13.4353 4.70948 13.2185 4.66637 12.9997 4.66638ZM10.5633 10.4864L10.1971 10.8526L8.38301 12.6668C8.33269 12.7171 8.27294 12.757 8.20719 12.7843C8.14144 12.8115 8.07096 12.8255 7.99979 12.8255C7.92862 12.8255 7.85814 12.8115 7.79239 12.7843C7.72663 12.757 7.66689 12.7171 7.61657 12.6668L5.80225 10.8526L5.43603 10.4864C5.27336 10.3236 5.14885 10.1267 5.07148 9.9099C4.99412 9.69314 4.96582 9.46191 4.98863 9.23288C5.01144 9.00386 5.08479 8.78275 5.20339 8.5855C5.32199 8.38826 5.48289 8.21979 5.67448 8.09225C5.98408 7.89525 6.35223 7.81127 6.71663 7.85453C7.08103 7.89779 7.41929 8.06563 7.67415 8.32964L7.99967 8.65519L8.32519 8.32963C8.58006 8.0656 8.91832 7.89776 9.28273 7.85452C9.64714 7.81127 10.0153 7.89528 10.3249 8.09233C10.5165 8.21986 10.6774 8.38831 10.796 8.58555C10.9146 8.78279 10.9879 9.0039 11.0107 9.23292C11.0335 9.46194 11.0052 9.69317 10.9279 9.90992C10.8505 10.1267 10.726 10.3236 10.5633 10.4864Z" fill="#AF3BF3"/>
</svg>
